<?xml version="1.0" encoding="utf-8"?>
<!-- Generator: Adobe Illustrator 17.1.0, SVG Export Plug-In . SVG Version: 6.00 Build 0)  -->
<!DOCTYPE svg PUBLIC "-//W3C//DTD SVG 1.1//EN" "http://www.w3.org/Graphics/SVG/1.1/DTD/svg11.dtd">
<svg version="1.1" id="Layer_1" xmlns="http://www.w3.org/2000/svg" xmlns:xlink="http://www.w3.org/1999/xlink" x="0px" y="0px"
	 width="400px" height="400px" viewBox="0 0 400 400" enable-background="new 0 0 400 400" xml:space="preserve">
<path fill="#757575" d="M383.2,87.2l-30-30c-4.4-4.4-9.6-6.4-15.6-6.4s-11.2,2-15.6,6.4L146,233.6l-71.6-72
	c-4.4-4.4-9.6-6.4-15.6-6.4s-11.2,2-15.6,6.4l-30,30c-4.4,4.4-6.4,9.6-6.4,15.6s2,11.2,6.4,15.6L130.4,340c4.4,4.4,9.6,6.4,15.6,6.4
	s11.2-2,15.6-6.4l222-222c4.4-4.4,6.4-9.6,6.4-15.6S387.6,91.2,383.2,87.2L383.2,87.2z"/>
</svg>
