<?xml version="1.0" encoding="UTF-8"?>
<!DOCTYPE svg  PUBLIC '-//W3C//DTD SVG 1.1//EN'  'http://www.w3.org/Graphics/SVG/1.1/DTD/svg11.dtd'>
<svg enable-background="new 0 0 400 400" version="1.1" viewBox="0 0 400 400" xml:space="preserve" xmlns="http://www.w3.org/2000/svg">
<path d="m383.2 87.2l-30-30c-4.4-4.4-9.6-6.4-15.6-6.4s-11.2 2-15.6 6.4l-176 176.4-71.6-72c-4.4-4.4-9.6-6.4-15.6-6.4s-11.2 2-15.6 6.4l-30 30c-4.4 4.4-6.4 9.6-6.4 15.6s2 11.2 6.4 15.6l117.2 117.2c4.4 4.4 9.6 6.4 15.6 6.4s11.2-2 15.6-6.4l222-222c4.4-4.4 6.4-9.6 6.4-15.6s-2.4-11.2-6.8-15.2z" fill="#757575"/>
</svg>