<svg id="Capa_1" data-name="Capa 1" xmlns="http://www.w3.org/2000/svg" viewBox="0 0 290 330"><title>icon-copy</title><path class="cls-1" d="M35,270H80v45a15,15,0,0,0,15,15H295a15,15,0,0,0,15-15V75a15,15,0,0,0-15-15H250V15A15,15,0,0,0,235,0H35A15,15,0,0,0,20,15V255A15,15,0,0,0,35,270Zm245,30H110V90H280V300ZM50,30H220V60H95A15,15,0,0,0,80,75V240H50V30Z" transform="translate(-20)"/><path class="cls-1" d="M155,120a15,15,0,0,0,0,30h80a15,15,0,0,0,0-30H155Z" transform="translate(-20)"/><path class="cls-1" d="M235,180H155a15,15,0,0,0,0,30h80A15,15,0,0,0,235,180Z" transform="translate(-20)"/><path class="cls-1" d="M235,240H155a15,15,0,0,0,0,30h80A15,15,0,0,0,235,240Z" transform="translate(-20)"/></svg>